<svg width="39" height="43" viewBox="0 0 39 43" fill="none" xmlns="http://www.w3.org/2000/svg">
<path d="M19.5 0C8.73275 0 0 9.62663 0 21.5C0 30.9994 5.58675 39.0583 13.3364 41.9017C14.3097 42.1006 14.625 41.4341 14.625 40.8679V36.8653C9.20075 38.1661 8.07137 34.3283 8.07137 34.3283C7.18412 31.8433 5.90525 31.1822 5.90525 31.1822C4.13562 29.8474 6.04012 29.876 6.04012 29.876C7.99825 30.0265 9.0285 32.0923 9.0285 32.0923C10.7673 35.3783 13.5899 34.4287 14.703 33.8786C14.8769 32.4901 15.3823 31.5405 15.9413 31.0048C11.6106 30.4583 7.05737 28.6147 7.05737 20.3784C7.05737 18.0295 7.8195 16.1125 9.06588 14.6075C8.86438 14.0646 8.1965 11.877 9.256 8.91713C9.256 8.91713 10.894 8.34021 14.6201 11.1209C16.1752 10.6443 17.8425 10.406 19.5 10.397C21.1575 10.406 22.8264 10.6443 24.3847 11.1209C28.1076 8.34021 29.7424 8.91713 29.7424 8.91713C30.8035 11.8787 30.1356 14.0664 29.9341 14.6075C31.1854 16.1125 31.941 18.0313 31.941 20.3784C31.941 28.6362 27.3796 30.4548 23.0376 30.9869C23.7364 31.6534 24.375 32.9613 24.375 34.968V40.8679C24.375 41.4395 24.687 42.1113 25.6766 41.8999C33.4198 39.053 39 30.9958 39 21.5C39 9.62663 30.2689 0 19.5 0Z" fill="white"/>
</svg>
