<svg xmlns="http://www.w3.org/2000/svg"  viewBox="0 0 64 64" width="96px" height="96px"><linearGradient id="imHBsuX94do2FTzZCffB_a" x1="35" x2="35" y1="12" y2="52" gradientUnits="userSpaceOnUse" spreadMethod="reflect"><stop offset="0" stop-color="#6dc7ff"/><stop offset="1" stop-color="#e6abff"/></linearGradient><path fill="url(#imHBsuX94do2FTzZCffB_a)" d="M15.918,26C18.467,17.886,26.045,12,35,12s16.533,5.886,19.082,14H15.918z M15.402,28 c-0.198,0.974-0.301,1.98-0.351,3H54.95c-0.051-1.02-0.153-2.026-0.351-3H15.402z M15.918,38C18.467,46.114,26.045,52,35,52 s16.533-5.886,19.082-14H15.918z M54.598,36c0.198-0.974,0.301-1.98,0.351-3H15.05c0.051,1.02,0.153,2.026,0.351,3H54.598z"/><linearGradient id="imHBsuX94do2FTzZCffB_b" x1="35" x2="35" y1="8" y2="56" gradientUnits="userSpaceOnUse" spreadMethod="reflect"><stop offset="0" stop-color="#1a6dff"/><stop offset="1" stop-color="#c822ff"/></linearGradient><path fill="none" stroke="url(#imHBsuX94do2FTzZCffB_b)" stroke-miterlimit="10" stroke-width="2" d="M35 9A23 23 0 1 0 35 55A23 23 0 1 0 35 9Z"/><linearGradient id="imHBsuX94do2FTzZCffB_c" x1="20.464" x2="20.464" y1="8" y2="56" gradientUnits="userSpaceOnUse" spreadMethod="reflect"><stop offset="0" stop-color="#1a6dff"/><stop offset="1" stop-color="#c822ff"/></linearGradient><path fill="url(#imHBsuX94do2FTzZCffB_c)" d="M35,55c-2.364,0-4.644-0.358-6.79-1.02C16.444,53.562,7,43.866,7,32s9.444-21.562,21.21-21.98 C30.356,9.358,32.636,9,35,9c0.311,0,0.619,0.011,0.927,0.023C33.733,8.36,31.408,8,29,8C15.767,8,5,18.767,5,32s10.767,24,24,24 c2.408,0,4.733-0.36,6.927-1.023C35.619,54.989,35.311,55,35,55z"/></svg>