<svg width="314" height="113" viewBox="0 0 314 113" fill="none" xmlns="http://www.w3.org/2000/svg">
<path d="M18.1055 60.9727C18.5742 61.5977 19.9609 62.4766 22.2656 63.6094C24.5703 64.7422 25.7812 65.3086 25.8984 65.3086C26.5625 65.6211 27.4805 66.2461 28.6523 67.1836C29.7852 68.1211 30.8789 68.8047 31.9336 69.2344C45.3711 75.0156 52.9883 78.4141 54.7852 79.4297C56.582 80.4062 57.4805 81.9297 57.4805 84C57.4805 85.0156 56.9336 86.1289 55.8398 87.3398C54.7461 88.5508 53.6133 89.1562 52.4414 89.1562C52.2461 89.1562 50.9961 88.5117 48.6914 87.2227C40.3711 82.6133 33.8281 79.332 29.0625 77.3789C26.1328 76.2461 21.6602 73.9219 15.6445 70.4062C9.62891 66.8906 6.62109 64.3516 6.62109 62.7891C6.62109 61.7734 7.01172 60.5234 7.79297 59.0391C8.57422 57.5156 11.1914 55.1328 15.6445 51.8906C16.1914 51.5 16.543 51.207 16.6992 51.0117C20.293 46.4023 26.6016 40.7578 35.625 34.0781C40.8594 30.2109 44.1406 27.5352 45.4688 26.0508C46.6797 24.6445 47.5586 23.8047 48.1055 23.5312C48.6914 23.2188 49.4531 23.0625 50.3906 23.0625C51.4844 23.0625 52.4414 23.3945 53.2617 24.0586C54.082 24.7227 54.4922 25.582 54.4922 26.6367C54.4922 29.8398 46.9727 36.9688 31.9336 48.0234C30.4492 49.1172 28.6523 50.7578 26.543 52.9453C24.8242 54.6641 22.0117 57.3398 18.1055 60.9727ZM57.5812 23.1797C57.9328 20.9531 58.6945 19.0391 59.8664 17.4375C61.0383 15.8359 62.4055 15.0352 63.968 15.0352C67.2102 15.0352 69.4367 18.9023 70.6477 26.6367C71.7805 34.1758 79.2219 53.5703 92.9719 84.8203C94.4562 82.2812 96.0578 79.6836 97.7766 77.0273C105.55 64.8789 111.116 55.5625 114.476 49.0781C128.03 23.7266 136.976 11.0508 141.312 11.0508C144.28 11.0508 145.765 12.7305 145.765 16.0898C145.765 16.6758 145.609 17.2031 145.296 17.6719C145.023 18.1016 143.734 19.9766 141.429 23.2969C133.773 34.3516 126.429 45.875 119.398 57.8672C113.851 67.2812 109.261 74.8203 105.628 80.4844C101.566 86.7734 99.1633 91.3242 98.4211 94.1367C97.9523 95.6992 96.8195 96.9688 95.0227 97.9453C93.2258 98.9219 91.0773 99.4102 88.5773 99.4102C87.5227 99.4102 85.1594 94.3906 81.4875 84.3516C79.8469 79.9766 74.3586 65.9727 65.0227 42.3398C60.0617 29.8008 57.5812 23.4141 57.5812 23.1797ZM191.92 33.6094C191.92 28.4141 190.573 25.25 187.877 24.1172C185.182 22.9453 181.823 22.3594 177.799 22.3594C169.518 22.3594 161.998 24 155.241 27.2812C148.522 30.5234 145.162 34.4297 145.162 39C145.162 42.2812 146.647 45.1523 149.616 47.6133C152.623 50.0352 159.147 52.7109 169.186 55.6406C178.912 58.4531 185.827 61.3633 189.928 64.3711C194.069 67.3398 196.139 70.9336 196.139 75.1523C196.139 79.4102 193.268 84.0195 187.526 88.9805C181.784 93.9023 174.85 97.6523 166.725 100.23C158.639 102.809 151.764 104.098 146.1 104.098C141.373 104.098 137.78 103.531 135.319 102.398C132.897 101.305 131.686 99.918 131.686 98.2383C131.686 97.0664 132.037 95.6406 132.741 93.9609C133.483 92.2422 134.225 91.3828 134.967 91.3828C135.748 91.3828 136.549 91.5195 137.37 91.793C141.549 93.3555 145.69 94.1367 149.791 94.1367C157.174 94.1367 165.006 91.9883 173.287 87.6914C181.569 83.3555 185.709 79.3125 185.709 75.5625C185.709 73.9609 184.44 72.4375 181.901 70.9922C179.401 69.5078 173.034 67.1445 162.799 63.9023C150.104 59.8789 142.291 55.9727 139.362 52.1836C136.471 48.3555 135.026 44.332 135.026 40.1133C135.026 31.9883 139.694 25.4453 149.03 20.4844C158.366 15.4844 168.131 12.9844 178.327 12.9844C185.084 12.9844 190.28 14.1367 193.912 16.4414C197.545 18.707 199.362 21.2266 199.362 24C199.362 25.3281 198.952 27.2617 198.131 29.8008C197.311 32.3398 195.241 33.6094 191.92 33.6094ZM193.427 106.676C192.451 106.676 191.455 106.168 190.439 105.152C189.423 104.137 188.916 103.121 188.916 102.105C188.916 101.402 189.873 99.0195 191.787 94.957C193.74 90.8945 196.806 85.6602 200.986 79.2539C205.205 72.8086 209.033 67.3008 212.47 62.7305C212.822 62.2617 213.115 61.832 213.349 61.4414C215.849 57.3789 219.521 51.832 224.365 44.8008C229.599 37.3398 234.228 30.2695 238.252 23.5898C240.127 20.5039 242.627 16.9102 245.752 12.8086C248.877 8.66797 251.123 6.59766 252.49 6.59766C253.271 6.59766 254.248 7.30078 255.42 8.70703C256.591 10.1133 257.177 11.2461 257.177 12.1055C257.177 13.6289 254.521 18.043 249.209 25.3477C237.724 41.0117 226.709 56.7148 216.162 72.457C214.873 74.3711 213.056 77.0078 210.712 80.3672C206.806 86.1484 204.423 90.0547 203.564 92.0859C202.705 94.1172 200.947 97.0469 198.291 100.875C195.673 104.742 194.052 106.676 193.427 106.676ZM294.251 58.9219C292.024 55.9922 289.641 53.9023 287.102 52.6523C285.657 51.9102 282.825 50.3867 278.606 48.082C274.114 45.582 270.598 43.6875 268.059 42.3984C264.544 40.6797 261.555 38.5508 259.095 36.0117C256.634 33.4727 255.403 30.875 255.403 28.2188C255.403 26.3047 256.36 25.3477 258.274 25.3477C259.212 25.3477 261.438 26.6953 264.954 29.3906C267.61 31.4219 272.395 34.625 279.309 39C286.262 43.375 292.122 46.8516 296.887 49.4297C303.216 52.6719 306.634 54.7422 307.141 55.6406C307.688 56.5391 307.962 57.5156 307.962 58.5703C307.962 59.7031 304.075 62.9844 296.302 68.4141C295.637 68.8438 294.466 69.7422 292.786 71.1094C291.106 72.4766 288.958 74.5859 286.341 77.4375L276.673 87.9258C274.72 90.0742 273.118 91.6562 271.868 92.6719C270.618 93.6875 269.407 94.1953 268.235 94.1953C267.141 94.1953 266.048 93.7266 264.954 92.7891C263.86 91.8516 263.313 90.7969 263.313 89.625C263.313 88.3359 264.446 86.832 266.712 85.1133C267.415 84.6055 268.118 84 268.821 83.2969C274.407 76.6953 279.837 71.207 285.11 66.832C289.368 63.5508 292.415 60.9141 294.251 58.9219Z" fill="#019E78"/>
<path d="M18.1055 60.9727L14.0194 56.579L10.067 60.2547L13.3055 64.5727L18.1055 60.9727ZM25.8984 65.3086L28.4532 59.8797L27.2397 59.3086H25.8984V65.3086ZM28.6523 67.1836L32.4778 62.5612L32.4394 62.5295L32.4005 62.4984L28.6523 67.1836ZM31.9336 69.2344L34.3048 63.7228L34.2513 63.6998L34.1974 63.6778L31.9336 69.2344ZM54.7852 79.4297L51.8328 84.6531L51.8762 84.6776L51.9201 84.7014L54.7852 79.4297ZM48.6914 87.2227L51.6203 81.9861L51.6097 81.9801L51.599 81.9742L48.6914 87.2227ZM29.0625 77.3789L31.3378 71.8271L31.2823 71.8043L31.2264 71.7827L29.0625 77.3789ZM7.79297 59.0391L13.1025 61.8335L13.1173 61.8053L13.1319 61.777L7.79297 59.0391ZM15.6445 51.8906L12.1571 47.0082L12.135 47.024L12.113 47.04L15.6445 51.8906ZM16.6992 51.0117L21.3844 54.7599L21.4079 54.7305L21.431 54.7009L16.6992 51.0117ZM35.625 34.0781L32.0597 29.2523L32.0551 29.2557L35.625 34.0781ZM45.4688 26.0508L49.9402 30.0516L49.9782 30.0091L50.0154 29.9659L45.4688 26.0508ZM48.1055 23.5312L50.7888 28.8978L50.8594 28.8625L50.929 28.8254L48.1055 23.5312ZM31.9336 48.0234L28.38 43.189L28.3744 43.1931L31.9336 48.0234ZM26.543 52.9453L30.7856 57.188L30.8242 57.1494L30.862 57.1101L26.543 52.9453ZM13.3055 64.5727C14.2365 65.8141 15.503 66.6727 16.2851 67.1684C17.2327 67.769 18.3675 68.379 19.6189 68.9941L24.9123 58.2247C23.859 57.707 23.1482 57.3111 22.7091 57.0327C22.4917 56.895 22.4058 56.8267 22.4072 56.8278C22.4111 56.831 22.4598 56.8705 22.5369 56.9465C22.6109 57.0195 22.7469 57.1613 22.9055 57.3727L13.3055 64.5727ZM19.6189 68.9941C20.7806 69.5651 21.7011 70.0104 22.3602 70.3186C22.6825 70.4694 22.9903 70.61 23.2518 70.7215C23.3743 70.7737 23.557 70.8498 23.7584 70.9229C23.8544 70.9577 24.032 71.0201 24.2521 71.0815C24.3056 71.0964 25.0037 71.3086 25.8984 71.3086V59.3086C26.1865 59.3086 26.4246 59.3296 26.589 59.3488C26.7589 59.3687 26.9019 59.3929 27.0087 59.4132C27.2165 59.4529 27.38 59.4959 27.4752 59.5224C27.6636 59.575 27.8008 59.6241 27.848 59.6412C27.9518 59.6789 28.0027 59.7019 27.9592 59.6833C27.8886 59.6532 27.7277 59.5814 27.4445 59.4489C26.8926 59.1908 26.0553 58.7865 24.9123 58.2247L19.6189 68.9941ZM23.3437 70.7375C23.2844 70.7096 23.3923 70.7562 23.7082 70.9713C24.0047 71.1732 24.3998 71.4653 24.9042 71.8688L32.4005 62.4984C31.1595 61.5056 29.7872 60.5074 28.4532 59.8797L23.3437 70.7375ZM24.8269 71.806C26.3005 73.0255 27.9133 74.0753 29.6698 74.7909L34.1974 63.6778C33.8445 63.5341 33.2698 63.2167 32.4778 62.5612L24.8269 71.806ZM29.5623 74.7459C43.2134 80.6191 50.4014 83.844 51.8328 84.6531L57.7375 74.2063C55.5751 72.9841 47.5288 69.4122 34.3048 63.7228L29.5623 74.7459ZM51.9201 84.7014C51.9781 84.733 51.9528 84.7274 51.8841 84.6637C51.8117 84.5965 51.7206 84.4918 51.6384 84.3526C51.5565 84.2137 51.5121 84.0888 51.4912 84.005C51.4715 83.9263 51.4805 83.9163 51.4805 84H63.4805C63.4805 82.0776 63.0554 80.0891 61.9748 78.2568C60.892 76.4206 59.352 75.0828 57.6502 74.1579L51.9201 84.7014ZM51.4805 84C51.4805 83.41 51.642 83.0388 51.685 82.9513C51.7203 82.8793 51.6711 83.0039 51.3872 83.3181L60.2925 91.3616C61.8103 89.6811 63.4805 87.1773 63.4805 84H51.4805ZM51.3872 83.3181C51.1847 83.5423 51.1575 83.509 51.3417 83.4106C51.56 83.2939 51.9482 83.1562 52.4414 83.1562V95.1562C55.8947 95.1562 58.5225 93.3211 60.2925 91.3616L51.3872 83.3181ZM52.4414 83.1562C52.8268 83.1562 53.1381 83.1942 53.3344 83.2245C53.5409 83.2563 53.7096 83.2938 53.8272 83.3228C54.0553 83.3789 54.2254 83.4364 54.3062 83.4648C54.3973 83.4967 54.4623 83.5228 54.4921 83.535C54.5091 83.5419 54.5216 83.5472 54.5291 83.5504C54.5366 83.5537 54.5407 83.5555 54.5409 83.5556C54.5411 83.5557 54.5384 83.5545 54.5326 83.5518C54.5269 83.5492 54.5187 83.5454 54.5078 83.5403C54.4858 83.5299 54.4559 83.5156 54.4173 83.4966C54.339 83.4583 54.2366 83.4068 54.1072 83.34C53.5736 83.0649 52.7551 82.6208 51.6203 81.9861L45.7625 92.4592C46.9324 93.1136 47.8913 93.6363 48.6077 94.0057C48.9566 94.1856 49.3196 94.3663 49.6535 94.5152C49.8134 94.5865 50.0544 94.6901 50.3313 94.7873C50.3529 94.7949 51.2767 95.1562 52.4414 95.1562V83.1562ZM51.599 81.9742C43.2142 77.3291 36.4298 73.914 31.3378 71.8271L26.7872 82.9307C31.2264 84.7501 37.528 87.8974 45.7838 92.4711L51.599 81.9742ZM31.2264 71.7827C28.7792 70.8364 24.6611 68.7262 18.6719 65.226L12.6171 75.5865C18.6592 79.1176 23.4865 81.6558 26.8986 82.9751L31.2264 71.7827ZM18.6719 65.226C15.7722 63.5314 13.8611 62.2206 12.7473 61.2804C12.1834 60.8044 12.0101 60.5776 12.0235 60.5959C12.0386 60.6164 12.1669 60.792 12.3014 61.1152C12.4374 61.442 12.6211 62.0206 12.6211 62.7891H0.621094C0.621094 65.0338 1.6503 66.7427 2.34663 67.6922C3.11198 68.7359 4.06657 69.6565 5.00664 70.4501C6.90064 72.0489 9.5012 73.7655 12.6171 75.5865L18.6719 65.226ZM12.6211 62.7891C12.6211 63.0344 12.5772 63.0836 12.6409 62.8795C12.7026 62.682 12.8366 62.3387 13.1025 61.8335L2.48346 56.2446C1.50988 58.0944 0.621094 60.3616 0.621094 62.7891H12.6211ZM13.1319 61.777C13.0017 62.0307 13.1601 61.6577 14.3811 60.546C15.4653 59.5589 17.0408 58.2959 19.1761 56.7412L12.113 47.04C9.79518 48.7276 7.83547 50.277 6.30247 51.6727C4.90633 52.9438 3.36545 54.524 2.45406 56.3012L13.1319 61.777ZM19.132 56.773C19.6167 56.4268 20.6364 55.695 21.3844 54.7599L12.014 47.2635C12.1063 47.1481 12.1867 47.0582 12.2451 46.9956C12.3045 46.932 12.3534 46.8836 12.3868 46.8515C12.4507 46.7901 12.4863 46.7611 12.4773 46.7686C12.471 46.7739 12.4422 46.7974 12.3849 46.841C12.3286 46.8838 12.2536 46.9393 12.1571 47.0082L19.132 56.773ZM21.431 54.7009C24.5107 50.7508 30.2853 45.496 39.1949 38.9006L32.0551 29.2557C22.9178 36.0196 16.0752 42.0539 11.9674 47.3225L21.431 54.7009ZM39.1903 38.9039C44.3083 35.1227 48.1245 32.0809 49.9402 30.0516L40.9973 22.05C40.1568 22.9894 37.4104 25.2991 32.0597 29.2523L39.1903 38.9039ZM50.0154 29.9659C50.5524 29.3422 50.935 28.9395 51.1813 28.7042C51.3023 28.5885 51.3476 28.5546 51.3257 28.5717C51.3238 28.5731 51.1344 28.725 50.7888 28.8978L45.4222 18.1647C44.3123 18.7196 43.4245 19.5185 42.891 20.0283C42.2584 20.6328 41.596 21.3531 40.9221 22.1356L50.0154 29.9659ZM50.929 28.8254C50.6354 28.982 50.4117 29.0389 50.3219 29.0573C50.2349 29.0751 50.2472 29.0625 50.3906 29.0625V17.0625C48.8499 17.0625 47.0207 17.3098 45.2819 18.2371L50.929 28.8254ZM50.3906 29.0625C50.3215 29.0625 50.1646 29.0503 49.9621 28.9801C49.7568 28.9089 49.5936 28.8087 49.4865 28.7221L57.0369 19.3951C55.1071 17.8329 52.8046 17.0625 50.3906 17.0625V29.0625ZM49.4865 28.7221C49.2781 28.5534 48.9895 28.2462 48.7697 27.7855C48.5498 27.3248 48.4922 26.9065 48.4922 26.6367H60.4922C60.4922 23.77 59.2633 21.1975 57.0369 19.3951L49.4865 28.7221ZM48.4922 26.6367C48.4922 25.4145 49.0444 25.1269 48.231 26.2445C47.5971 27.1155 46.4805 28.3667 44.7245 30.0315C41.2352 33.3396 35.8302 37.7126 28.38 43.189L35.4872 52.8579C43.076 47.2796 48.9504 42.5608 52.9806 38.74C54.9843 36.8403 56.6875 35.0178 57.9335 33.3058C59 31.8404 60.4922 29.4605 60.4922 26.6367H48.4922ZM28.3744 43.1931C26.5012 44.5733 24.4381 46.4843 22.2239 48.7805L30.862 57.1101C32.8666 55.0313 34.3972 53.661 35.4928 52.8538L28.3744 43.1931ZM22.3003 48.7027C20.664 50.339 17.9197 52.9517 14.0194 56.579L22.1915 65.3663C26.1037 61.7279 28.9844 58.9892 30.7856 57.188L22.3003 48.7027ZM57.5812 23.1797L51.6547 22.2439L51.5812 22.7089V23.1797H57.5812ZM70.6477 26.6367L76.581 25.7452L76.5783 25.7269L76.5754 25.7086L70.6477 26.6367ZM92.9719 84.8203L87.48 87.2367L92.2163 98.0011L98.1517 87.8485L92.9719 84.8203ZM97.7766 77.0273L102.814 80.2869L102.822 80.274L102.83 80.2612L97.7766 77.0273ZM114.476 49.0781L109.185 46.2491L109.166 46.2835L109.148 46.3181L114.476 49.0781ZM145.296 17.6719L140.304 14.3437L140.268 14.3968L140.234 14.4506L145.296 17.6719ZM141.429 23.2969L136.5 19.8756L136.496 19.8807L141.429 23.2969ZM119.398 57.8672L124.567 60.9131L124.574 60.9019L119.398 57.8672ZM105.628 80.4844L110.668 83.74L110.673 83.7318L110.679 83.7236L105.628 80.4844ZM98.4211 94.1367L104.168 95.8608L104.197 95.7647L104.222 95.6676L98.4211 94.1367ZM81.4875 84.3516L87.1224 82.2905L87.114 82.2676L87.1055 82.2448L81.4875 84.3516ZM65.0227 42.3398L70.603 40.1354L70.6019 40.1325L65.0227 42.3398ZM63.5078 24.1155C63.7309 22.7027 64.1729 21.7126 64.7086 20.9806L55.0242 13.8944C53.2161 16.3655 52.1347 19.2036 51.6547 22.2439L63.5078 24.1155ZM64.7086 20.9806C64.928 20.6807 64.9831 20.7076 64.8031 20.813C64.7101 20.8675 64.5783 20.9283 64.4147 20.973C64.2506 21.0178 64.0962 21.0352 63.968 21.0352V9.03516C59.9835 9.03516 56.9878 11.2108 55.0242 13.8944L64.7086 20.9806ZM63.968 21.0352C63.4948 21.0352 63.0389 20.867 62.745 20.6592C62.5243 20.5031 62.6097 20.4776 62.8698 20.9293C63.4378 21.9158 64.1556 23.961 64.7199 27.5648L76.5754 25.7086C75.9287 21.5781 74.9279 17.8225 73.2693 14.9418C71.5388 11.9362 68.5112 9.03516 63.968 9.03516V21.0352ZM64.7143 27.5283C65.3916 32.0363 67.779 39.3495 71.4765 48.9863C75.2465 58.8119 80.5874 71.5718 87.48 87.2367L98.4638 82.4039C91.6064 66.8189 86.3516 54.2565 82.6801 44.6876C78.9362 34.9298 77.0365 28.7762 76.581 25.7452L64.7143 27.5283ZM98.1517 87.8485C99.5871 85.3932 101.141 82.8727 102.814 80.2869L92.7391 73.7678C90.9749 76.4945 89.3254 79.1693 87.7921 81.7921L98.1517 87.8485ZM102.83 80.2612C110.627 68.0765 116.314 58.5735 119.803 51.8382L109.148 46.3181C105.919 52.5515 100.473 61.6813 92.7226 73.7935L102.83 80.2612ZM119.767 51.9072C126.508 39.2991 131.996 30.0501 136.253 24.0171C138.396 20.9807 140.086 18.9632 141.338 17.7679C141.962 17.1721 142.336 16.9181 142.47 16.841C142.637 16.7442 142.2 17.0508 141.312 17.0508V5.05078C139.34 5.05078 137.674 5.75344 136.469 6.44892C135.231 7.16406 134.089 8.09839 133.053 9.08707C130.985 11.0607 128.778 13.7967 126.449 17.0981C121.761 23.7409 115.998 33.5056 109.185 46.2491L119.767 51.9072ZM141.312 17.0508C141.503 17.0508 141.407 17.0794 141.142 16.9796C140.842 16.8665 140.472 16.6414 140.156 16.2837C139.544 15.5922 139.765 15.1651 139.765 16.0898H151.765C151.765 13.6552 151.243 10.7086 149.148 8.33736C146.927 5.82465 143.927 5.05078 141.312 5.05078V17.0508ZM139.765 16.0898C139.765 15.8434 139.799 15.5449 139.895 15.2203C139.992 14.8937 140.135 14.5971 140.304 14.3437L150.288 21.0001C151.285 19.5048 151.765 17.8101 151.765 16.0898H139.765ZM140.234 14.4506C140.235 14.45 140.212 14.4844 140.154 14.5726C140.099 14.6541 140.027 14.7617 139.934 14.8982C139.749 15.1709 139.499 15.5374 139.18 16.0012C138.543 16.9278 137.65 18.2181 136.5 19.8756L146.358 26.7182C148.61 23.4738 150.001 21.4546 150.358 20.8931L140.234 14.4506ZM136.496 19.8807C128.751 31.0635 121.327 42.7145 114.222 54.8324L124.574 60.9019C131.531 49.0355 138.794 37.6396 146.361 26.713L136.496 19.8807ZM114.228 54.8213C108.699 64.2049 104.152 71.6715 100.578 77.2451L110.679 83.7236C114.369 77.9692 119.002 70.3576 124.567 60.9131L114.228 54.8213ZM100.588 77.2288C96.5573 83.4689 93.6359 88.7549 92.6197 92.6058L104.222 95.6676C104.691 93.8936 106.574 90.078 110.668 83.74L100.588 77.2288ZM92.6741 92.4126C92.685 92.3764 92.7019 92.3362 92.7223 92.3001C92.7423 92.2648 92.7543 92.2535 92.7431 92.266C92.7187 92.2933 92.5683 92.4503 92.1576 92.6736L97.8877 103.217C100.704 101.687 103.136 99.302 104.168 95.8608L92.6741 92.4126ZM92.1576 92.6736C91.4153 93.077 90.297 93.4102 88.5773 93.4102V105.41C91.8577 105.41 95.0363 104.767 97.8877 103.217L92.1576 92.6736ZM88.5773 93.4102C90.7257 93.4102 91.9944 94.588 92.1542 94.7331C92.4791 95.0282 92.5917 95.226 92.5004 95.092C92.34 94.8565 91.9892 94.2514 91.4423 93.0897C90.3775 90.8281 88.942 87.2655 87.1224 82.2905L75.8526 86.4126C77.7048 91.4767 79.287 95.4434 80.5854 98.2013C81.2201 99.5494 81.8874 100.827 82.5816 101.846C82.9175 102.339 83.4164 103.008 84.0868 103.617C84.592 104.075 86.1653 105.41 88.5773 105.41V93.4102ZM87.1055 82.2448C85.4415 77.8076 79.928 63.7405 70.603 40.1354L59.4423 44.5443C68.7892 68.2049 74.2522 82.1455 75.8695 86.4583L87.1055 82.2448ZM70.6019 40.1325C68.1225 33.8658 66.2678 29.1485 65.0346 25.9733C64.4167 24.3824 63.9621 23.1972 63.665 22.4041C63.5145 22.0023 63.4165 21.7333 63.3609 21.5746C63.3308 21.4885 63.3299 21.4824 63.3429 21.5244C63.3477 21.5398 63.3759 21.6307 63.4087 21.7618C63.4249 21.8263 63.456 21.9553 63.4864 22.1226C63.5052 22.2259 63.5812 22.64 63.5812 23.1797H51.5812C51.5812 23.7267 51.6585 24.1512 51.6797 24.2677C51.7125 24.4484 51.7473 24.5937 51.7683 24.6776C51.8109 24.8473 51.8536 24.9889 51.8778 25.0671C51.9295 25.2344 51.9867 25.4019 52.0341 25.5374C52.1336 25.8217 52.2681 26.1881 52.4277 26.614C52.7507 27.4761 53.2262 28.7152 53.8486 30.3177C55.0959 33.5292 56.9619 38.2748 59.4434 44.5472L70.6019 40.1325ZM191.92 33.6094H185.92V39.6094H191.92V33.6094ZM187.877 24.1172L185.485 29.6196L185.519 29.6343L185.553 29.6485L187.877 24.1172ZM155.241 27.2812L157.848 32.685L157.855 32.6818L157.861 32.6786L155.241 27.2812ZM149.616 47.6133L145.786 52.2326L145.819 52.2598L145.853 52.2866L149.616 47.6133ZM169.186 55.6406L167.505 61.4004L167.512 61.4024L167.519 61.4045L169.186 55.6406ZM189.928 64.3711L186.38 69.2095L186.406 69.2285L186.432 69.2473L189.928 64.3711ZM187.526 88.9805L191.431 93.536L191.439 93.5284L191.448 93.5207L187.526 88.9805ZM166.725 100.23L164.91 94.5115L164.902 94.514L166.725 100.23ZM135.319 102.398L137.828 96.9482L137.808 96.9391L137.788 96.9302L135.319 102.398ZM132.741 93.9609L127.232 91.5823L127.219 91.6131L127.206 91.6441L132.741 93.9609ZM137.37 91.793L139.471 86.1728L139.369 86.135L139.267 86.1009L137.37 91.793ZM173.287 87.6914L176.051 93.0172L176.061 93.012L176.071 93.0069L173.287 87.6914ZM181.901 70.9922L178.838 76.1513L178.885 76.1794L178.933 76.2066L181.901 70.9922ZM162.799 63.9023L160.987 69.622L160.987 69.6222L162.799 63.9023ZM139.362 52.1836L134.573 55.7992L134.594 55.8266L134.615 55.8537L139.362 52.1836ZM149.03 20.4844L151.845 25.7828L151.854 25.7782L151.862 25.7736L149.03 20.4844ZM193.912 16.4414L190.698 21.5079L190.718 21.5202L190.737 21.5325L193.912 16.4414ZM197.92 33.6094C197.92 27.9976 196.518 21.2404 190.202 18.5859L185.553 29.6485C185.212 29.5052 185.211 29.2729 185.389 29.691C185.627 30.2497 185.92 31.4467 185.92 33.6094H197.92ZM190.27 18.6148C186.596 17.0174 182.361 16.3594 177.799 16.3594V28.3594C181.285 28.3594 183.768 28.8732 185.485 29.6196L190.27 18.6148ZM177.799 16.3594C168.704 16.3594 160.275 18.1669 152.62 21.8839L157.861 32.6786C163.722 29.8331 170.332 28.3594 177.799 28.3594V16.3594ZM152.633 21.8775C145.26 25.4354 139.162 30.8864 139.162 39H151.162C151.162 37.973 151.784 35.6115 157.848 32.685L152.633 21.8775ZM139.162 39C139.162 44.3883 141.71 48.8537 145.786 52.2326L153.445 42.994C151.583 41.451 151.162 40.1742 151.162 39H139.162ZM145.853 52.2866C148.035 54.044 151.054 55.5795 154.487 56.9877C158.012 58.4337 162.37 59.9018 167.505 61.4004L170.867 49.8809C165.963 48.4498 162.039 47.1152 159.041 45.8854C155.951 44.6177 154.204 43.6045 153.379 42.9399L145.853 52.2866ZM167.519 61.4045C177.103 64.1757 183.167 66.8535 186.38 69.2095L193.476 59.5327C188.486 55.873 180.722 52.7305 170.853 49.8768L167.519 61.4045ZM186.432 69.2473C189.37 71.3539 190.139 73.281 190.139 75.1523H202.139C202.139 68.5861 198.767 63.3258 193.424 59.4949L186.432 69.2473ZM190.139 75.1523C190.139 76.7014 188.995 79.7824 183.603 84.4402L191.448 93.5207C197.541 88.2567 202.139 82.1189 202.139 75.1523H190.139ZM183.621 84.4249C178.563 88.76 172.365 92.146 164.91 94.5115L168.54 105.949C177.335 103.159 185.004 99.0447 191.431 93.536L183.621 84.4249ZM164.902 94.514C157.143 96.9881 150.919 98.0977 146.1 98.0977V110.098C152.609 110.098 160.136 108.629 168.548 105.947L164.902 94.514ZM146.1 98.0977C141.688 98.0977 139.12 97.5431 137.828 96.9482L132.81 107.849C136.439 109.519 141.059 110.098 146.1 110.098V98.0977ZM137.788 96.9302C137.438 96.7722 137.226 96.6451 137.113 96.5681C137 96.491 137.024 96.4896 137.114 96.5916C137.209 96.7011 137.366 96.9155 137.494 97.2393C137.625 97.5712 137.686 97.9184 137.686 98.2383H125.686C125.686 103.494 129.668 106.43 132.849 107.867L137.788 96.9302ZM137.686 98.2383C137.686 98.2402 137.687 98.0821 137.775 97.7265C137.862 97.3753 138.016 96.8968 138.275 96.2778L127.206 91.6441C126.348 93.6945 125.686 95.9543 125.686 98.2383H137.686ZM138.249 96.3396C138.513 95.7273 138.597 95.7146 138.395 95.9491C138.232 96.1372 137.092 97.3828 134.967 97.3828V85.3828C132.1 85.3828 130.218 87.0581 129.313 88.1056C128.368 89.1995 127.71 90.4758 127.232 91.5823L138.249 96.3396ZM134.967 97.3828C135.039 97.3828 135.199 97.3939 135.472 97.4851L139.267 86.1009C137.9 85.6451 136.458 85.3828 134.967 85.3828V97.3828ZM135.269 97.4131C140.061 99.2047 144.912 100.137 149.791 100.137V88.1367C146.468 88.1367 143.037 87.5063 139.471 86.1728L135.269 97.4131ZM149.791 100.137C158.356 100.137 167.136 97.643 176.051 93.0172L170.524 82.3656C162.877 86.3335 155.992 88.1367 149.791 88.1367V100.137ZM176.071 93.0069C180.452 90.7128 184.132 88.301 186.796 85.7002C189.406 83.151 191.709 79.7486 191.709 75.5625H179.709C179.709 75.1264 179.942 75.6205 178.412 77.1143C176.935 78.5564 174.404 80.334 170.504 82.3759L176.071 93.0069ZM191.709 75.5625C191.709 70.4804 187.742 67.4132 184.869 65.7778L178.933 76.2066C179.366 76.4534 179.672 76.6621 179.878 76.823C180.087 76.9855 180.156 77.07 180.148 77.0599C180.137 77.0466 180.024 76.9076 179.913 76.6342C179.796 76.3462 179.709 75.9769 179.709 75.5625H191.709ZM184.964 65.8331C183.204 64.7878 180.533 63.6673 177.338 62.4814C174.027 61.2524 169.775 59.8182 164.611 58.1825L160.987 69.6222C166.058 71.2286 170.107 72.5972 173.163 73.7315C176.335 74.9089 178.098 75.7122 178.838 76.1513L184.964 65.8331ZM164.612 58.1827C158.425 56.2221 153.622 54.3489 150.102 52.5885C146.443 50.7592 144.737 49.3261 144.108 48.5135L134.615 55.8537C136.916 58.8301 140.581 61.2447 144.735 63.3216C149.027 65.4675 154.478 67.5592 160.987 69.622L164.612 58.1827ZM144.15 48.568C141.933 45.6319 141.026 42.8516 141.026 40.1133H129.026C129.026 45.8124 131.009 51.079 134.573 55.7992L144.15 48.568ZM141.026 40.1133C141.026 34.8916 143.78 30.0683 151.845 25.7828L146.214 15.186C135.607 20.8223 129.026 29.085 129.026 40.1133H141.026ZM151.862 25.7736C160.362 21.2215 169.159 18.9844 178.327 18.9844V6.98438C167.104 6.98438 156.369 9.74729 146.197 15.1952L151.862 25.7736ZM178.327 18.9844C184.542 18.9844 188.429 20.0683 190.698 21.5079L197.127 11.375C192.13 8.20516 185.627 6.98438 178.327 6.98438V18.9844ZM190.737 21.5325C192.126 22.3985 192.817 23.1021 193.132 23.5391C193.279 23.7431 193.33 23.8683 193.346 23.9151C193.36 23.9556 193.362 23.9753 193.362 24H205.362C205.362 18.193 201.466 14.0808 197.088 11.3503L190.737 21.5325ZM193.362 24C193.362 24.3462 193.203 25.5384 192.422 27.9562L203.841 31.6454C204.7 28.985 205.362 26.31 205.362 24H193.362ZM192.422 27.9562C192.4 28.0226 192.411 27.9599 192.502 27.8396C192.599 27.7126 192.719 27.6081 192.827 27.5423C192.924 27.4826 192.938 27.4987 192.801 27.5311C192.656 27.5651 192.376 27.6094 191.92 27.6094V39.6094C194.296 39.6094 196.835 39.161 199.1 37.7721C201.479 36.3134 203.037 34.1326 203.841 31.6454L192.422 27.9562ZM191.787 94.957L186.379 92.3573L186.369 92.3785L186.359 92.3997L191.787 94.957ZM200.986 79.2539L195.966 75.9679L195.961 75.9754L200.986 79.2539ZM212.47 62.7305L217.265 66.337L217.27 66.3305L212.47 62.7305ZM213.349 61.4414L208.239 58.2968L208.222 58.3255L208.204 58.3544L213.349 61.4414ZM224.365 44.8008L219.453 41.3548L219.438 41.3758L219.424 41.3969L224.365 44.8008ZM238.252 23.5898L233.124 20.4743L233.118 20.4841L233.112 20.494L238.252 23.5898ZM245.752 12.8086L250.524 16.4449L250.532 16.434L250.541 16.423L245.752 12.8086ZM249.209 25.3477L254.047 28.8953L254.054 28.886L254.061 28.8767L249.209 25.3477ZM216.162 72.457L221.138 75.8086L221.142 75.8026L221.146 75.7966L216.162 72.457ZM210.712 80.3672L205.792 76.9341L205.766 76.9709L205.741 77.008L210.712 80.3672ZM198.291 100.875L193.361 97.4545L193.341 97.4832L193.322 97.5121L198.291 100.875ZM193.427 100.676C194.015 100.676 194.45 100.836 194.673 100.949C194.869 101.049 194.865 101.093 194.682 100.91L186.196 109.395C187.81 111.008 190.243 112.676 193.427 112.676V100.676ZM194.682 100.91C194.515 100.743 194.564 100.747 194.663 100.946C194.776 101.172 194.916 101.577 194.916 102.105H182.916C182.916 105.274 184.527 107.725 186.196 109.395L194.682 100.91ZM194.916 102.105C194.916 102.617 194.839 102.966 194.829 103.013C194.809 103.106 194.8 103.124 194.826 103.04C194.878 102.872 194.992 102.549 195.201 102.027C195.616 100.995 196.276 99.5054 197.214 97.5143L186.359 92.3997C185.383 94.4712 184.608 96.204 184.066 97.5548C183.797 98.2247 183.551 98.8824 183.364 99.4859C183.237 99.8969 182.916 100.94 182.916 102.105H194.916ZM197.194 97.5568C198.984 93.8344 201.89 88.8484 206.011 82.5324L195.961 75.9754C191.722 82.4719 188.496 87.9547 186.379 92.3573L197.194 97.5568ZM206.006 82.5399C210.176 76.1691 213.928 70.7743 217.265 66.337L207.675 59.1239C204.138 63.8272 200.233 69.4481 195.966 75.968L206.006 82.5399ZM217.27 66.3305C217.713 65.7407 218.129 65.1374 218.494 64.5284L208.204 58.3544C208.101 58.5266 207.931 58.7827 207.67 59.1305L217.27 66.3305ZM218.459 64.586C220.879 60.6541 224.483 55.2059 229.306 48.2046L219.424 41.3969C214.559 48.4582 210.82 54.1037 208.239 58.2968L218.459 64.586ZM229.277 48.2467C234.578 40.6902 239.285 33.5025 243.391 26.6857L233.112 20.494C229.171 27.0365 224.62 33.9895 219.453 41.3548L229.277 48.2467ZM243.379 26.7054C245.11 23.857 247.478 20.4435 250.524 16.4449L240.979 9.17233C237.776 13.3768 235.143 17.1508 233.124 20.4743L243.379 26.7054ZM250.541 16.423C252.014 14.471 253.107 13.2433 253.846 12.5622C254.216 12.2217 254.356 12.15 254.283 12.1918C254.263 12.2031 253.603 12.5977 252.49 12.5977V0.597656C250.693 0.597656 249.24 1.251 248.317 1.77985C247.34 2.33925 246.467 3.04394 245.713 3.73863C244.206 5.12778 242.614 7.00561 240.962 9.19415L250.541 16.423ZM252.49 12.5977C251.779 12.5977 251.227 12.4375 250.884 12.3004C250.548 12.166 250.353 12.0304 250.302 11.9942C250.227 11.9402 250.398 12.0538 250.81 12.5481L260.029 4.86592C259.269 3.954 258.366 3.01289 257.314 2.25579C256.321 1.54088 254.653 0.597656 252.49 0.597656V12.5977ZM250.81 12.5481C251.009 12.7869 251.154 12.9789 251.255 13.1257C251.358 13.2745 251.401 13.354 251.409 13.3679C251.417 13.3848 251.367 13.2929 251.311 13.1027C251.255 12.9121 251.177 12.5683 251.177 12.1055H263.177C263.177 10.3646 262.604 8.89314 262.067 7.85479C261.509 6.77488 260.784 5.77205 260.029 4.86592L250.81 12.5481ZM251.177 12.1055C251.177 11.1255 251.493 10.6891 251.202 11.3398C251.009 11.7721 250.646 12.4643 250.044 13.4649C248.848 15.4521 246.974 18.2194 244.356 21.8186L254.061 28.8767C256.756 25.1712 258.866 22.0791 260.326 19.6523C261.052 18.4459 261.686 17.2924 262.156 16.2402C262.529 15.4066 263.177 13.8472 263.177 12.1055H251.177ZM244.37 21.8C232.837 37.5307 221.772 53.3031 211.177 69.1174L221.146 75.7966C231.645 60.1266 242.612 44.4928 254.047 28.8953L244.37 21.8ZM211.185 69.1054C209.923 70.979 208.129 73.5845 205.792 76.9341L215.633 83.8003C217.984 80.4311 219.822 77.7631 221.138 75.8086L211.185 69.1054ZM205.741 77.008C201.904 82.6874 199.166 87.0826 198.038 89.7481L209.09 94.4238C209.681 93.0268 211.709 89.6095 215.684 83.7263L205.741 77.008ZM198.038 89.7481C197.435 91.1739 195.982 93.6777 193.361 97.4545L203.22 104.295C205.912 100.416 207.974 97.0605 209.09 94.4238L198.038 89.7481ZM193.322 97.5121C192.049 99.3925 191.125 100.642 190.514 101.371C190.194 101.752 190.091 101.833 190.168 101.766C190.206 101.734 190.426 101.544 190.805 101.335C191.106 101.168 192.056 100.676 193.427 100.676V112.676C194.955 112.676 196.092 112.123 196.612 111.836C197.209 111.505 197.679 111.134 197.997 110.86C198.636 110.31 199.219 109.666 199.71 109.08C200.72 107.876 201.915 106.225 203.26 104.238L193.322 97.5121ZM294.251 58.9219L298.663 62.988L302.069 59.2925L299.028 55.2914L294.251 58.9219ZM287.102 52.6523L284.362 57.9897L284.407 58.0129L284.452 58.0354L287.102 52.6523ZM278.606 48.082L275.689 53.3248L275.709 53.3363L275.73 53.3475L278.606 48.082ZM268.059 42.3984L270.776 37.0484L270.735 37.028L270.695 37.0081L268.059 42.3984ZM259.095 36.0117L254.786 40.1876L259.095 36.0117ZM264.954 29.3906L261.303 34.1523L261.309 34.1568L264.954 29.3906ZM279.309 39L276.101 44.0702L276.108 44.0743L276.114 44.0783L279.309 39ZM296.887 49.4297L294.033 54.7069L294.092 54.739L294.152 54.7696L296.887 49.4297ZM307.141 55.6406L301.918 58.593L301.966 58.6774L302.016 58.7603L307.141 55.6406ZM296.302 68.4141L299.561 73.4515L299.65 73.3938L299.737 73.3329L296.302 68.4141ZM286.341 77.4375L290.752 81.5041L290.761 81.4946L286.341 77.4375ZM276.673 87.9258L272.261 83.8592L272.247 83.8744L272.233 83.8897L276.673 87.9258ZM266.712 85.1133L263.199 80.2492L263.142 80.2905L263.085 80.3331L266.712 85.1133ZM268.821 83.2969L273.064 87.5395L273.24 87.363L273.401 87.1725L268.821 83.2969ZM285.11 66.832L281.448 62.0795L281.362 62.1454L281.279 62.2143L285.11 66.832ZM299.028 55.2914C296.401 51.835 293.339 49.035 289.752 47.2693L284.452 58.0354C285.944 58.7697 287.648 60.1494 289.474 62.5524L299.028 55.2914ZM289.843 47.3149C288.477 46.6136 285.712 45.127 281.483 42.8165L275.73 53.3475C279.938 55.6465 282.837 57.2068 284.362 57.9897L289.843 47.3149ZM281.524 42.8392C277.009 40.3265 273.416 38.3889 270.776 37.0484L265.343 47.7484C267.781 48.9861 271.219 50.8375 275.689 53.3248L281.524 42.8392ZM270.695 37.0081C267.737 35.5619 265.332 33.826 263.403 31.8359L254.786 40.1876C257.779 43.2756 261.351 45.7974 265.424 47.7887L270.695 37.0081ZM263.403 31.8359C261.657 30.0348 261.403 28.8554 261.403 28.2188H249.403C249.403 32.8946 251.61 36.9105 254.786 40.1876L263.403 31.8359ZM261.403 28.2188C261.403 28.2223 261.405 28.4697 261.275 28.86C261.135 29.2794 260.857 29.8144 260.364 30.3081C259.87 30.8018 259.335 31.0794 258.915 31.2192C258.525 31.3493 258.278 31.3477 258.274 31.3477V19.3477C256.392 19.3477 253.879 19.8222 251.878 21.8228C249.878 23.8234 249.403 26.3369 249.403 28.2188H261.403ZM258.274 31.3477C257.709 31.3477 257.303 31.2518 257.136 31.2071C256.95 31.1574 256.854 31.1144 256.868 31.1205C256.907 31.137 257.117 31.2349 257.54 31.4914C258.381 31.9999 259.617 32.8596 261.303 34.1523L268.604 24.629C266.775 23.2263 265.14 22.0645 263.754 21.2254C263.065 20.8081 262.322 20.4006 261.57 20.0802C260.948 19.8152 259.734 19.3477 258.274 19.3477V31.3477ZM261.309 34.1568C264.2 36.3673 269.19 39.6968 276.101 44.0702L282.518 33.9298C275.601 29.5532 271.02 26.4764 268.599 24.6245L261.309 34.1568ZM276.114 44.0783C283.128 48.4917 289.109 52.0432 294.033 54.7069L299.742 44.1524C295.135 41.6599 289.397 38.2583 282.505 33.9217L276.114 44.0783ZM294.152 54.7696C297.27 56.3674 299.56 57.6202 301.089 58.546C301.861 59.0138 302.338 59.3379 302.596 59.5327C302.724 59.63 302.724 59.6392 302.649 59.5675C302.624 59.543 302.266 59.208 301.918 58.593L312.365 52.6883C311.564 51.2709 310.316 50.3259 309.834 49.9614C309.11 49.4141 308.242 48.8494 307.306 48.2821C305.416 47.1376 302.833 45.7342 299.623 44.0898L294.152 54.7696ZM302.016 58.7603C302.017 58.7616 302.012 58.7527 302.003 58.734C301.995 58.7152 301.986 58.6915 301.979 58.6647C301.962 58.6056 301.962 58.5679 301.962 58.5703H313.962C313.962 56.4184 313.387 54.3621 312.267 52.5209L302.016 58.7603ZM301.962 58.5703C301.962 57.1461 302.512 56.2178 302.594 56.0783C302.742 55.8236 302.834 55.7399 302.73 55.8576C302.53 56.0844 302.059 56.5505 301.176 57.2962C299.444 58.7583 296.707 60.8122 292.866 63.4952L299.737 73.3329C303.67 70.5862 306.762 68.2847 308.917 66.4655C309.977 65.5706 310.964 64.6646 311.736 63.7879C312.118 63.3538 312.574 62.7855 312.965 62.1134C313.29 61.5564 313.962 60.2778 313.962 58.5703H301.962ZM293.042 63.3766C292.064 64.0093 290.653 65.1092 288.998 66.456L296.574 75.7627C298.278 74.3752 299.211 73.6782 299.561 73.4515L293.042 63.3766ZM288.998 66.456C286.984 68.0956 284.607 70.4534 281.92 73.3804L290.761 81.4946C293.309 78.7185 295.229 76.8575 296.574 75.7627L288.998 66.456ZM281.929 73.3709L272.261 83.8592L281.084 91.9924L290.752 81.5041L281.929 73.3709ZM272.233 83.8897C270.349 85.9618 268.985 87.2834 268.084 88.0152L275.652 97.3286C277.251 96.0291 279.09 94.1867 281.112 91.9618L272.233 83.8897ZM268.084 88.0152C267.949 88.1254 267.847 88.1952 267.78 88.2368C267.713 88.2782 267.687 88.2876 267.702 88.2813C267.718 88.2746 267.775 88.2522 267.871 88.2319C267.968 88.2112 268.092 88.1953 268.235 88.1953V100.195C271.222 100.195 273.729 98.8904 275.652 97.3286L268.084 88.0152ZM268.235 88.1953C268.57 88.1953 268.824 88.2716 268.958 88.3289C269.074 88.3785 269.037 88.3866 268.859 88.2335L261.049 97.3446C262.881 98.9144 265.307 100.195 268.235 100.195V88.1953ZM268.859 88.2335C268.775 88.1622 268.902 88.2483 269.05 88.533C269.213 88.8468 269.313 89.2359 269.313 89.625H257.313C257.313 92.9431 258.958 95.5519 261.049 97.3446L268.859 88.2335ZM269.313 89.625C269.313 90.1948 269.186 90.6251 269.086 90.8731C268.99 91.1094 268.911 91.1985 268.955 91.1402C268.997 91.0851 269.115 90.9423 269.353 90.7158C269.589 90.4921 269.911 90.2173 270.338 89.8934L263.085 80.3331C261.712 81.375 260.393 82.5627 259.37 83.9203C258.367 85.2522 257.313 87.2001 257.313 89.625H269.313ZM270.225 89.9774C271.222 89.2574 272.166 88.4368 273.064 87.5395L264.578 79.0542C264.07 79.5632 263.608 79.9536 263.199 80.2492L270.225 89.9774ZM273.401 87.1725C278.816 80.7735 283.998 75.5505 288.941 71.4498L281.279 62.2143C275.675 66.8636 269.998 72.6171 264.241 79.4212L273.401 87.1725ZM288.773 71.5845C293.092 68.2561 296.47 65.3679 298.663 62.988L289.839 54.8558C288.36 56.4602 285.644 58.8455 281.448 62.0795L288.773 71.5845Z" fill="white"/>
</svg>
