<svg width="103" height="24" viewBox="0 0 103 24" fill="none" xmlns="http://www.w3.org/2000/svg">
<path d="M12.4512 2.6875H12.5732C12.8011 2.6875 12.915 2.80143 12.915 3.0293V3.15137C12.915 3.42806 12.8906 3.81055 12.8418 4.29883C12.8092 4.78711 12.7767 5.21842 12.7441 5.59277C12.7279 5.95085 12.5 7.05762 12.0605 8.91309C11.6374 10.7686 11.1816 12.6891 10.6934 14.6748C10.2214 16.6442 9.79004 18.2799 9.39941 19.582C9.00879 20.8678 8.69141 21.7223 8.44727 22.1455C8.20312 22.5524 7.91829 22.8372 7.59277 23C7.47884 22.9023 7.25098 22.5199 6.90918 21.8525L3.68652 11.916L2.75879 6.8623H2.66113L2.51465 6.83789C2.23796 6.83789 1.84733 6.88672 1.34277 6.98438C0.854492 7.08203 0.463867 7.13086 0.170898 7.13086C0.170898 6.90299 0.276693 6.74023 0.488281 6.64258C0.602214 6.54492 1.02539 6.37402 1.75781 6.12988C2.49023 5.88574 2.90527 5.73926 3.00293 5.69043H3.125C3.28776 5.69043 3.39355 5.8125 3.44238 6.05664C3.45866 6.10547 3.47493 6.26009 3.49121 6.52051C3.52376 6.78092 3.68652 7.68424 3.97949 9.23047C4.28874 10.7767 4.50846 11.7451 4.63867 12.1357C4.85026 13.0146 5.33854 14.5771 6.10352 16.8232C6.88477 19.0693 7.38118 20.4365 7.59277 20.9248L7.83691 21.3643C7.95085 21.3643 8.03223 21.291 8.08105 21.1445C8.14616 21.0469 8.30078 20.7051 8.54492 20.1191C8.80534 19.5169 8.95996 19.1751 9.00879 19.0938C10.5387 13.3483 11.4014 9.97103 11.5967 8.96191C11.792 7.9528 12.0036 6.40658 12.2314 4.32324C12.2477 4.24186 12.2396 4.07096 12.207 3.81055C12.1094 3.22461 12.1908 2.85026 12.4512 2.6875ZM12.5488 20.4365C12.5326 20.29 12.5244 20.1517 12.5244 20.0215C12.5244 18.9798 12.8662 17.9056 13.5498 16.7988C14.2497 15.6921 15.1449 15.1387 16.2354 15.1387C16.4469 15.1387 16.6178 15.2038 16.748 15.334C16.8783 15.4479 16.9434 15.6514 16.9434 15.9443C16.9434 16.221 16.862 16.5547 16.6992 16.9453C16.5527 17.3197 16.3167 17.7021 15.9912 18.0928C15.682 18.4834 15.4134 18.8008 15.1855 19.0449C14.9577 19.2891 14.6322 19.6064 14.209 19.9971C13.8021 20.3877 13.5579 20.6237 13.4766 20.7051C13.4603 20.8353 13.4521 20.9085 13.4521 20.9248C13.4521 21.3643 13.6637 21.7061 14.0869 21.9502C14.5101 22.1943 14.9495 22.3164 15.4053 22.3164C16.4958 22.3164 17.3584 22.1211 17.9932 21.7305C18.6442 21.3398 19.3929 20.6807 20.2393 19.7529C20.3695 19.5902 20.4427 19.46 20.459 19.3623C20.4915 19.2646 20.5811 19.1589 20.7275 19.0449C20.8903 19.11 20.9717 19.2646 20.9717 19.5088C20.8089 20.0133 20.4834 20.5586 19.9951 21.1445C19.5068 21.7142 18.929 22.2025 18.2617 22.6094C17.334 23.1465 16.5446 23.415 15.8936 23.415C15.2588 23.415 14.6403 23.1953 14.0381 22.7559C13.4359 22.3164 12.9395 21.5433 12.5488 20.4365ZM16.2842 16.042C15.5843 16.042 14.9333 16.4163 14.3311 17.165C13.7288 17.9137 13.4277 18.6299 13.4277 19.3135C13.4277 19.5413 13.444 19.7041 13.4766 19.8018C14.0788 19.4762 14.6973 18.9229 15.332 18.1416C15.9668 17.3441 16.2842 16.6442 16.2842 16.042ZM20.9229 17.8242L20.6299 17.8975C20.5811 17.9463 20.4427 17.987 20.2148 18.0195C19.987 18.0521 19.7673 18.0521 19.5557 18.0195C19.3441 17.987 19.2464 17.9056 19.2627 17.7754C19.2301 17.3034 19.5312 17.0918 20.166 17.1406C20.8333 17.1895 21.224 16.9779 21.3379 16.5059L22.4854 12.1357L22.9492 11.6719C23.112 11.7207 23.1934 11.8672 23.1934 12.1113L23.1689 12.3555L22.0215 16.9697V17.0918C22.1517 17.1406 22.347 17.165 22.6074 17.165C22.8678 17.165 23.3317 17.0755 23.999 16.8965C24.6663 16.7012 25.0488 16.6035 25.1465 16.6035C25.1465 17.4987 24.5443 17.9463 23.3398 17.9463C22.9655 17.9463 22.5423 17.9056 22.0703 17.8242C21.7122 18.638 21.5332 19.3867 21.5332 20.0703C21.5332 20.7376 21.7122 21.3561 22.0703 21.9258C22.4284 22.4792 22.9818 22.7559 23.7305 22.7559C24.4954 22.6419 25.0814 22.4629 25.4883 22.2188C25.9115 21.9583 26.2207 21.7793 26.416 21.6816C26.6113 21.5677 26.8066 21.5107 27.002 21.5107C27.1973 21.5107 27.4089 21.5352 27.6367 21.584C27.181 22.3978 25.8626 22.9349 23.6816 23.1953C23.6328 23.1953 23.5921 23.1953 23.5596 23.1953C22.4365 23.1953 21.6797 22.7803 21.2891 21.9502C20.9961 21.348 20.8496 20.6562 20.8496 19.875C20.8496 19.0775 20.874 18.3939 20.9229 17.8242ZM33.4961 16.0908L33.5449 17.0186C33.5449 17.3604 33.5205 17.6289 33.4717 17.8242C33.4391 18.0033 33.4147 18.1416 33.3984 18.2393C33.3822 18.3369 33.3415 18.4671 33.2764 18.6299C33.2113 18.7764 33.1706 18.8822 33.1543 18.9473C33.138 19.0124 33.0811 19.1344 32.9834 19.3135C32.8857 19.4925 32.8206 19.6064 32.7881 19.6553C32.7718 19.7041 32.6986 19.8424 32.5684 20.0703C32.4544 20.2819 32.3812 20.4202 32.3486 20.4854H32.8369C33.7809 20.4854 35.1644 20.0296 36.9873 19.1182L37.1826 19.3379C35.6201 20.5911 33.7809 21.2747 31.665 21.3887L29.5166 22.707C29.3213 22.8698 28.89 22.9512 28.2227 22.9512C27.5716 22.9512 27.1484 22.7721 26.9531 22.4141C26.7741 22.0397 26.6846 21.4619 26.6846 20.6807C26.6846 19.8994 27.0101 19.0124 27.6611 18.0195C28.3285 17.0267 29.0934 16.5303 29.9561 16.5303C30.3467 16.5303 30.599 16.693 30.7129 17.0186C29.8014 17.2952 29.0202 17.7754 28.3691 18.459C27.7181 19.1426 27.3926 19.932 27.3926 20.8271C27.3926 21.1364 27.4089 21.3805 27.4414 21.5596C27.474 21.7386 27.5635 21.9014 27.71 22.0479C27.8564 22.1943 28.1413 22.2676 28.5645 22.2676C29.4434 22.2676 30.1595 21.9014 30.7129 21.1689C30.5501 20.8923 30.4688 20.4447 30.4688 19.8262C30.4688 19.1914 30.5176 18.5973 30.6152 18.0439C30.7292 17.4743 30.9489 16.929 31.2744 16.4082C31.5999 15.8874 32.0068 15.627 32.4951 15.627C32.9834 15.627 33.3171 15.7816 33.4961 16.0908ZM32.8613 17.2383L32.8857 16.9209C32.8857 16.5954 32.7881 16.4001 32.5928 16.335C32.1696 16.5791 31.8278 17.0186 31.5674 17.6533C31.307 18.2881 31.1768 18.874 31.1768 19.4111C31.1768 19.9482 31.2581 20.2331 31.4209 20.2656C31.8766 20.0052 32.2266 19.582 32.4707 18.9961C32.7311 18.4102 32.8613 17.8405 32.8613 17.2871V17.2383ZM41.5771 20.4609C41.5771 20.168 41.5771 19.6634 41.5771 18.9473C41.5934 18.2148 41.6016 17.5882 41.6016 17.0674C41.1458 17.165 40.4785 17.751 39.5996 18.8252C38.737 19.8994 38.265 20.4609 38.1836 20.5098C37.5488 21.3561 37.0524 21.9583 36.6943 22.3164C36.5479 22.5117 36.3118 22.6094 35.9863 22.6094V22.0723L37.0361 18.6787C37.0361 17.4906 37.2396 16.6117 37.6465 16.042C37.7604 15.8792 37.8662 15.7979 37.9639 15.7979C38.1266 15.7979 38.208 16.0745 38.208 16.6279C38.208 17.165 38.1266 17.7673 37.9639 18.4346C37.8011 19.0856 37.7197 19.6309 37.7197 20.0703C37.8499 19.9401 38.2406 19.4844 38.8916 18.7031C39.5426 17.9219 39.9333 17.4661 40.0635 17.3359C40.1774 17.2708 40.3727 17.1081 40.6494 16.8477C41.2354 16.3268 41.748 16.0664 42.1875 16.0664C42.4316 16.0664 42.5863 16.1478 42.6514 16.3105C42.6676 16.4896 42.6758 16.7826 42.6758 17.1895C42.6758 17.5801 42.6107 18.2067 42.4805 19.0693C42.3503 19.9157 42.277 20.5911 42.2607 21.0957C42.2607 21.8607 42.5781 22.2432 43.2129 22.2432C43.6686 22.2432 44.1081 22.1211 44.5312 21.877C44.9544 21.6165 45.2962 21.3317 45.5566 21.0225C45.8171 20.6969 46.1182 20.3307 46.46 19.9238C46.8018 19.5007 47.1029 19.1914 47.3633 18.9961V19.2402C47.3633 20.0215 46.8587 20.8353 45.8496 21.6816C44.8405 22.5117 43.9209 22.9268 43.0908 22.9268H42.2852C42.041 22.764 41.8783 22.6094 41.7969 22.4629C41.7318 22.3164 41.6829 22.2106 41.6504 22.1455C41.6178 22.0804 41.5934 21.9827 41.5771 21.8525C41.5771 21.7061 41.5771 21.6003 41.5771 21.5352V20.4609ZM58.0811 23.4883C56.2093 23.4883 54.0527 22.4059 51.6113 20.2412L47.1436 22.3896C47.0622 22.3896 46.9727 22.2676 46.875 22.0234C46.7936 21.7793 46.7529 21.6084 46.7529 21.5107C46.7529 21.4131 47.0296 21.2747 47.583 21.0957C49.5036 20.5098 50.7731 19.932 51.3916 19.3623C51.1475 18.4346 51.0254 17.5882 51.0254 16.8232C51.0254 16.042 51.1719 15.3665 51.4648 14.7969C52.0508 13.7227 53.3773 12.8844 55.4443 12.2822C55.3141 12.3799 55.2897 12.4938 55.3711 12.624C55.4688 12.738 55.4932 12.8193 55.4443 12.8682C53.9469 13.6331 52.9948 14.1947 52.5879 14.5527C51.9531 15.1387 51.6357 15.8955 51.6357 16.8232C51.6357 17.4255 51.7822 18.1823 52.0752 19.0938C52.5309 18.752 53.9632 17.7266 56.3721 16.0176C58.7809 14.3086 60.848 12.738 62.5732 11.3057L63.0371 5.08008C63.1348 3.97331 63.5661 2.96419 64.3311 2.05273C65.096 1.125 65.9912 0.661133 67.0166 0.661133C67.7327 0.807617 68.2373 1.04362 68.5303 1.36914C68.8395 1.67839 68.9941 2.02832 68.9941 2.41895C68.9941 3.36296 68.4733 4.55924 67.4316 6.00781C66.9596 6.65885 66.5039 7.26107 66.0645 7.81445C64.86 9.31185 64.0218 10.4512 63.5498 11.2324C63.6963 12.2253 63.7695 13.1855 63.7695 14.1133C63.7695 15.0247 63.7044 15.8955 63.5742 16.7256C63.444 17.5557 63.2568 18.3532 63.0127 19.1182C62.7686 19.8669 62.4512 20.5342 62.0605 21.1201C61.0026 22.6989 59.6761 23.4883 58.0811 23.4883ZM52.5146 19.8994C54.5329 21.7712 56.3314 22.707 57.9102 22.707C59.1471 22.707 60.14 22.2757 60.8887 21.4131C61.849 20.29 62.443 18.988 62.6709 17.5068C62.8337 16.5303 62.915 15.627 62.915 14.7969C62.915 13.9505 62.8337 13.1286 62.6709 12.3311L52.5146 19.8994ZM66.9922 1.36914C65.5111 1.5319 64.5671 2.36198 64.1602 3.85938C63.8672 4.94987 63.6882 6.16243 63.623 7.49707C63.5579 8.81543 63.501 9.66178 63.4521 10.0361C64.152 9.4502 65.1367 8.22135 66.4062 6.34961C67.6921 4.47786 68.335 3.20833 68.335 2.54102C68.335 2.16667 68.2048 1.88184 67.9443 1.68652C67.6839 1.47493 67.3665 1.36914 66.9922 1.36914ZM75.8545 21.877C74.9756 22.5117 74.0153 22.8291 72.9736 22.8291C72.4365 22.8291 71.9971 22.6663 71.6553 22.3408C71.3298 22.0153 71.1263 21.6084 71.0449 21.1201C70.9635 20.6156 70.9066 20.168 70.874 19.7773C70.8577 19.3704 70.8496 19.0368 70.8496 18.7764C70.8496 18.4997 70.8659 18.2148 70.8984 17.9219C70.8496 17.7428 70.6217 17.6533 70.2148 17.6533C69.8242 17.6533 69.4417 17.8568 69.0674 18.2637C68.693 18.6706 68.3838 19.1589 68.1396 19.7285C67.9118 20.2819 67.6839 20.8353 67.4561 21.3887C67.2445 21.9421 67.041 22.3571 66.8457 22.6338C66.6504 22.9105 66.4876 23.0488 66.3574 23.0488C66.2272 23.0488 66.1296 23.0326 66.0645 23C66.0482 22.9023 66.04 22.7884 66.04 22.6582C66.04 21.8444 66.3249 20.0947 66.8945 17.4092C67.4642 14.7236 68.0257 12.4206 68.5791 10.5C68.6117 10.3861 68.7012 10.1419 68.8477 9.76758C69.0104 9.37695 69.1813 9.10026 69.3604 8.9375C69.5394 8.75846 69.7266 8.66895 69.9219 8.66895C70.1172 8.66895 70.2718 8.70964 70.3857 8.79102V8.74219C70.5485 8.85612 70.6787 9.13281 70.7764 9.57227C70.874 10.0117 70.9229 10.3617 70.9229 10.6221C70.9229 12.152 70.5241 13.5518 69.7266 14.8213C69.401 15.3421 69.0755 15.8304 68.75 16.2861C68.4245 16.7419 68.1641 17.1732 67.9688 17.5801C67.7897 17.987 67.7002 18.2881 67.7002 18.4834C67.7002 18.6787 67.7002 18.8008 67.7002 18.8496C68.5954 17.5964 69.5475 16.9697 70.5566 16.9697C70.9147 16.9697 71.1751 17.0104 71.3379 17.0918C71.4681 17.1732 71.5495 17.2871 71.582 17.4336C71.6146 17.5638 71.6309 17.9137 71.6309 18.4834C71.6471 19.0368 71.6715 19.5169 71.7041 19.9238C71.7529 20.3145 71.8262 20.7376 71.9238 21.1934C72.0215 21.6328 72.1517 21.9176 72.3145 22.0479C72.4935 22.1781 72.6562 22.2432 72.8027 22.2432C72.9492 22.2432 73.1038 22.2025 73.2666 22.1211C74.6989 21.4212 75.6429 21.0713 76.0986 21.0713C76.3102 21.0713 76.416 21.1364 76.416 21.2666C76.416 21.3968 76.2288 21.6003 75.8545 21.877ZM69.2627 10.793C68.6605 13.1204 68.3512 14.4469 68.335 14.7725C68.335 15.0817 68.335 15.2526 68.335 15.2852L68.3594 15.627C69.1243 15.3177 69.6696 13.9668 69.9951 11.5742C70.0928 10.8743 70.1416 10.3047 70.1416 9.86523C70.1416 9.42578 70.0684 9.20605 69.9219 9.20605C69.7754 9.20605 69.5557 9.73503 69.2627 10.793ZM82.0557 16.7988C81.5837 18.0033 81.3477 19.1263 81.3477 20.168C81.3477 21.8932 82.2835 22.7559 84.1553 22.7559C84.6273 22.6908 84.9772 22.5931 85.2051 22.4629C85.4492 22.3327 85.7096 22.113 85.9863 21.8037C86.263 21.4782 86.5316 21.2096 86.792 20.998H86.9141C86.8327 21.9095 86.5153 22.528 85.9619 22.8535C85.4248 23.1628 84.6842 23.3174 83.7402 23.3174C81.7057 23.3174 80.6071 22.4629 80.4443 20.7539C80.363 21.1771 79.9886 21.6735 79.3213 22.2432C78.6702 22.7965 78.0843 23.0732 77.5635 23.0732C77.5309 23.0732 77.4902 23.0732 77.4414 23.0732C76.4323 22.7965 75.9277 22.1943 75.9277 21.2666C75.9277 20.0622 76.5544 18.8903 77.8076 17.751C78.7842 16.8558 79.7363 16.4082 80.6641 16.4082C81.1849 16.4082 81.6488 16.5384 82.0557 16.7988ZM76.6846 21.1445C76.6846 21.4049 76.6927 21.6165 76.709 21.7793C76.7415 21.9258 76.8229 22.0641 76.9531 22.1943C77.0996 22.3245 77.3031 22.3896 77.5635 22.3896C78.2796 22.3571 78.9958 21.7874 79.7119 20.6807C80.4443 19.5576 80.835 18.5973 80.8838 17.7998C80.6234 17.4743 80.2653 17.3115 79.8096 17.3115C79.2236 17.3115 78.6133 17.6859 77.9785 18.4346C77.3438 19.1833 76.9124 20.0866 76.6846 21.1445ZM85.8154 20.168C85.8805 18.3451 86.4014 16.1315 87.3779 13.5273C88.3545 10.9232 89.1764 9.50716 89.8438 9.2793C90.0391 9.2793 90.1774 9.46647 90.2588 9.84082C90.3402 10.2152 90.3809 10.5244 90.3809 10.7686C90.3809 11.6475 90.1937 12.6891 89.8193 13.8936C89.445 15.0817 89.0055 16.042 88.501 16.7744C88.3057 17.0999 88.0371 17.4417 87.6953 17.7998C87.3698 18.1579 87.1175 18.4915 86.9385 18.8008C86.7757 19.0938 86.6943 19.4681 86.6943 19.9238C86.6943 20.7376 86.9141 21.4049 87.3535 21.9258C87.8092 22.4466 88.444 22.707 89.2578 22.707C90.6087 22.707 91.4632 22.2432 91.8213 21.3154H92.0898C92.0898 21.9502 91.7725 22.4548 91.1377 22.8291C90.5029 23.2035 89.7868 23.3906 88.9893 23.3906C88.1917 23.3906 87.5081 23.0895 86.9385 22.4873C86.3688 21.8688 85.9945 21.0957 85.8154 20.168ZM89.7461 10.915C89.6159 11.0615 89.3962 11.4033 89.0869 11.9404C88.7939 12.4775 88.623 12.8275 88.5742 12.9902C87.4837 15.8385 86.9385 17.3766 86.9385 17.6045C87.6221 17.1325 88.2568 16.1478 88.8428 14.6504C89.4287 13.1367 89.7298 11.8916 89.7461 10.915ZM97.5342 16.7988C97.0622 18.0033 96.8262 19.1263 96.8262 20.168C96.8262 21.8932 97.762 22.7559 99.6338 22.7559C100.106 22.6908 100.456 22.5931 100.684 22.4629C100.928 22.3327 101.188 22.113 101.465 21.8037C101.742 21.4782 102.01 21.2096 102.271 20.998H102.393C102.311 21.9095 101.994 22.528 101.44 22.8535C100.903 23.1628 100.163 23.3174 99.2188 23.3174C97.1842 23.3174 96.0856 22.4629 95.9229 20.7539C95.8415 21.1771 95.4671 21.6735 94.7998 22.2432C94.1488 22.7965 93.5628 23.0732 93.042 23.0732C93.0094 23.0732 92.9688 23.0732 92.9199 23.0732C91.9108 22.7965 91.4062 22.1943 91.4062 21.2666C91.4062 20.0622 92.0329 18.8903 93.2861 17.751C94.2627 16.8558 95.2148 16.4082 96.1426 16.4082C96.6634 16.4082 97.1273 16.5384 97.5342 16.7988ZM92.1631 21.1445C92.1631 21.4049 92.1712 21.6165 92.1875 21.7793C92.2201 21.9258 92.3014 22.0641 92.4316 22.1943C92.5781 22.3245 92.7816 22.3896 93.042 22.3896C93.7581 22.3571 94.4743 21.7874 95.1904 20.6807C95.9229 19.5576 96.3135 18.5973 96.3623 17.7998C96.1019 17.4743 95.7438 17.3115 95.2881 17.3115C94.7021 17.3115 94.0918 17.6859 93.457 18.4346C92.8223 19.1833 92.391 20.0866 92.1631 21.1445Z" fill="white"/>
</svg>
